<svg xmlns="http://www.w3.org/2000/svg" viewBox="0 0 1200 630">
  <defs>
    <linearGradient id="bg" x1="0" y1="0" x2="1" y2="1">
      <stop offset="0%" stop-color="#2b1d12"/>
      <stop offset="60%" stop-color="#5a3c25"/>
      <stop offset="100%" stop-color="#3f5a30"/>
    </linearGradient>
    <linearGradient id="accent" x1="0" y1="1" x2="1" y2="0">
      <stop offset="0%" stop-color="#5e7b4a"/>
      <stop offset="100%" stop-color="#b6c79f"/>
    </linearGradient>
  </defs>
  <rect width="1200" height="630" fill="url(#bg)"/>
  <g opacity=".18" stroke="#fbf6ec" stroke-width="2" fill="none">
    <ellipse cx="960" cy="320" rx="240" ry="240"/>
    <ellipse cx="960" cy="320" rx="240" ry="80"/>
    <ellipse cx="960" cy="320" rx="80" ry="240"/>
    <path d="M720 320h480M780 180c60 80 300 80 360 0M780 460c60-80 300-80 360 0"/>
  </g>
  <g transform="translate(960 320)">
    <circle cx="-110" cy="60" r="22" fill="url(#accent)"/>
    <circle cx="0" cy="0" r="16" fill="#c8a781"/>
    <circle cx="120" cy="-80" r="22" fill="#d68361"/>
    <path d="M-110 60 L0 0 L120 -80" stroke="#fbf6ec" stroke-width="3" fill="none" opacity=".85"/>
  </g>
  <g font-family="Source Serif Pro, Georgia, serif" fill="#fbf6ec">
    <text x="80" y="170" font-size="34" opacity=".75" letter-spacing="6">PROVENANCE · LINEAGE · COMPLIANCE</text>
    <text x="80" y="290" font-size="74" font-weight="700">Geospatial Data Lineage</text>
    <text x="80" y="370" font-size="74" font-weight="700">&amp; Provenance Tracking</text>
  </g>
  <g font-family="Inter, system-ui, sans-serif" fill="#c8a781">
    <text x="80" y="450" font-size="28">Automated origin tracking, transformation audit trails,</text>
    <text x="80" y="488" font-size="28">and Python pipeline integration for spatial ETL.</text>
  </g>
  <text x="80" y="568" font-family="Inter, system-ui, sans-serif" font-size="22" fill="#fbf6ec" opacity=".7">provenance-tracking.com</text>
</svg>
